<?xml version="1.0" encoding="UTF-8"?>
<svg id="Layer_1" data-name="Layer 1" xmlns="http://www.w3.org/2000/svg" viewBox="0 0 418.49 211.58">
  <defs>
    <style>
      .cls-1 {
        fill: #75c044;
      }

      .cls-1, .cls-2, .cls-3, .cls-4, .cls-5 {
        stroke-width: 0px;
      }

      .cls-2 {
        fill: #58595b;
      }

      .cls-3 {
        fill: #8a8c8e;
      }

      .cls-4 {
        fill: #ed1c29;
      }

      .cls-5 {
        fill: #e2e3e4;
      }
    </style>
  </defs>
  <g>
    <g>
      <path class="cls-1" d="M241.99,80.28h-16.32v73.89h16.32v-73.89ZM217.61,119.28c-1.21-3.26-2.88-6.03-5.04-8.31-2.15-2.28-4.72-4.02-7.72-5.23-3-1.2-6.29-1.81-9.87-1.81s-7.17.62-10.36,1.86c-3.19,1.24-5.96,2.98-8.31,5.23-2.34,2.25-4.2,4.98-5.57,8.21-1.37,3.22-2.05,6.82-2.05,10.8s.7,7.75,2.1,10.94c1.4,3.19,3.32,5.88,5.77,8.06,2.44,2.19,5.29,3.84,8.55,4.98,3.26,1.14,6.71,1.71,10.36,1.71,4.95,0,9.3-.89,13.05-2.69,3.75-1.79,6.76-4.35,9.04-7.67l-11.14-7.04c-1.11,1.5-2.54,2.72-4.3,3.67-1.76.95-3.91,1.41-6.45,1.41-1.43,0-2.82-.23-4.15-.68-1.34-.46-2.54-1.09-3.62-1.91-1.07-.81-1.96-1.77-2.64-2.88-.68-1.11-1.09-2.35-1.22-3.71h35.28c.06-.59.1-1.2.1-1.86v-1.96c0-4.17-.6-7.88-1.81-11.14M184.04,124.26c.06-1.24.39-2.43.98-3.57.59-1.14,1.37-2.13,2.35-2.98.98-.85,2.12-1.52,3.42-2,1.3-.49,2.74-.73,4.3-.73,3.19,0,5.59.91,7.18,2.74,1.6,1.82,2.39,4.01,2.39,6.55h-20.62ZM146.26,134.33c-.55,1.5-1.34,2.8-2.34,3.91-1.01,1.11-2.25,2-3.72,2.69-1.46.68-3.11,1.03-4.93,1.03s-3.44-.34-4.84-1.03c-1.4-.69-2.59-1.6-3.57-2.74-.98-1.14-1.73-2.46-2.25-3.96-.52-1.5-.78-3.06-.78-4.69s.26-3.29.78-4.79c.52-1.5,1.27-2.8,2.25-3.91.98-1.11,2.17-1.99,3.57-2.64,1.4-.65,3.01-.98,4.84-.98s3.45.33,4.89.98c1.43.65,2.67,1.55,3.71,2.69,1.04,1.14,1.84,2.46,2.39,3.96.55,1.5.83,3.06.83,4.69s-.28,3.29-.83,4.79M162.34,105.5h-15.15v6.26h-.2c-1.69-2.6-3.94-4.53-6.74-5.77-2.8-1.24-5.73-1.86-8.79-1.86-3.65,0-6.91.7-9.78,2.1-2.87,1.4-5.29,3.28-7.28,5.62-1.99,2.35-3.5,5.05-4.54,8.11-1.04,3.06-1.56,6.29-1.56,9.68s.52,6.6,1.56,9.62c1.04,3.03,2.56,5.68,4.54,7.97,1.99,2.28,4.41,4.09,7.28,5.43,2.87,1.34,6.16,2,9.87,2,3.26,0,6.16-.58,8.7-1.76,2.54-1.17,4.56-2.74,6.06-4.69h.29v2.93c0,4.1-1.12,7.39-3.37,9.87-2.25,2.47-5.72,3.71-10.41,3.71-2.73,0-5.52-.51-8.36-1.52-2.83-1.01-5.42-2.56-7.77-4.64l-8.01,11.44c3.32,2.47,7.25,4.36,11.78,5.67,4.53,1.3,8.94,1.95,13.24,1.95s8.22-.57,11.78-1.71c3.55-1.14,6.56-2.87,9.04-5.18,2.47-2.31,4.39-5.23,5.76-8.75,1.37-3.52,2.05-7.66,2.05-12.41v-44.08ZM102.52,154.17v-30.1c0-2.41-.31-4.82-.93-7.23-.62-2.41-1.63-4.54-3.03-6.4-1.4-1.86-3.24-3.37-5.52-4.54-2.28-1.17-5.05-1.76-8.31-1.76-1.7,0-3.29.23-4.79.69-1.5.45-2.88,1.04-4.16,1.76-1.27.72-2.38,1.58-3.32,2.59-.95,1.01-1.71,2.04-2.3,3.08h-.2v-6.74h-15.54v48.67h16.13v-26.39c0-1.37.18-2.69.54-3.96.36-1.27.9-2.39,1.61-3.37.71-.98,1.61-1.74,2.69-2.29,1.08-.55,2.33-.83,3.76-.83s2.62.28,3.57.83c.94.55,1.68,1.3,2.2,2.25.52.94.89,2.04,1.12,3.27.23,1.24.34,2.54.34,3.91v26.58h16.12ZM10.46,120.84c1.5-1.37,3.31-2.54,5.43-3.52,2.12-.98,4.32-1.47,6.6-1.47,2.47,0,4.56.57,6.25,1.71,1.69,1.14,2.54,2.92,2.54,5.33v.78c-3.52,0-7.13.2-10.85.59-3.71.39-7.09,1.17-10.12,2.35-3.03,1.17-5.51,2.84-7.43,4.98-1.92,2.15-2.88,4.99-2.88,8.5,0,2.87.55,5.28,1.66,7.23,1.11,1.96,2.52,3.52,4.25,4.69,1.72,1.17,3.63,2.02,5.72,2.54,2.08.52,4.11.78,6.06.78,2.93,0,5.65-.56,8.16-1.66,2.51-1.11,4.38-2.67,5.62-4.69h.29v5.18h14.66v-24.53c0-4.43-.41-8.26-1.22-11.48-.82-3.23-2.1-5.9-3.86-8.01-1.76-2.12-4.06-3.68-6.89-4.69-2.84-1.01-6.3-1.52-10.41-1.52s-7.87.68-11.68,2.05c-3.81,1.37-7.15,3.42-10.02,6.16l8.11,8.7ZM31.76,134.62c0,3.06-.86,5.49-2.59,7.28-1.73,1.79-4.22,2.69-7.48,2.69-.78,0-1.6-.08-2.44-.24-.85-.16-1.6-.44-2.25-.83-.65-.39-1.19-.91-1.61-1.56-.42-.65-.63-1.43-.63-2.35,0-1.43.46-2.59,1.37-3.47.91-.88,2.07-1.55,3.47-2.01,1.4-.46,3-.77,4.79-.93s3.57-.24,5.33-.24h2.05v1.66Z"/>
      <path class="cls-4" d="M245.51,110.78c2.41-2.28,5.36-3.99,8.85-5.13,3.49-1.14,7.05-1.71,10.7-1.71,2.34,0,4.71.31,7.09.93,2.38.62,4.54,1.58,6.5,2.88,1.95,1.3,3.55,2.98,4.79,5.03,1.24,2.05,1.86,4.54,1.86,7.47,0,2.28-.42,4.24-1.27,5.87-.85,1.63-1.94,3-3.28,4.11-1.34,1.11-2.85,1.99-4.55,2.64-1.69.65-3.38,1.17-5.08,1.56-3.32.78-5.77,1.53-7.33,2.25-1.56.72-2.35,1.82-2.35,3.32s.64,2.66,1.91,3.28c1.27.62,2.56.93,3.86.93,2.35,0,4.56-.52,6.65-1.56,2.09-1.04,3.85-2.35,5.28-3.91l8.99,9.48c-2.54,2.48-5.72,4.35-9.53,5.62-3.81,1.27-7.7,1.91-11.68,1.91-2.48,0-4.95-.29-7.43-.88-2.48-.58-4.71-1.53-6.7-2.83-1.99-1.3-3.6-3.01-4.84-5.13-1.24-2.12-1.86-4.71-1.86-7.77,0-2.35.45-4.37,1.37-6.06.91-1.7,2.12-3.13,3.62-4.3,1.5-1.17,3.18-2.11,5.03-2.83,1.86-.71,3.7-1.27,5.52-1.66,3.13-.71,5.39-1.37,6.79-1.95,1.4-.59,2.1-1.56,2.1-2.93s-.63-2.44-1.91-3.03c-1.27-.59-2.65-.88-4.15-.88-1.96,0-3.81.42-5.57,1.27-1.76.85-3.29,1.89-4.59,3.13l-8.8-9.09Z"/>
      <path class="cls-5" d="M384.13,156.51c-2.66,9.44-10.12,16.85-19.58,19.45-9.46,2.6-19.66.04-26.77-6.72-7.78-7.39-13.27-16.91-15.77-27.35-4.1-17.11-3.44-35.09,1.9-51.85,6.88-21.62,24.25-38.48,46.06-44.73,20.43-5.85,34.99-24.09,36.19-45.3l4.27,6.84c7.58,12.13,7.18,27.71-1.01,39.44-8.2,11.73-22.69,17.45-36.69,14.5l.76.43c9.36,5.26,20.89,5.16,30.15-.29,6.51-3.82,11.42-9.95,13.72-17.14l.48,2.28c2.91,13.95-4.13,28.15-17.01,34.27-12.87,6.12-32.66,1.35-39.26-8.48,0,0,4.85,17.28,22.22,21.18,10.35,2.32,24.79-.85,30.34-10.83v3.28c-.43,13.53-7.39,24.59-16.52,28.35-9.13,3.76-22.67,2.1-30.91-3.32-10.54-6.93-15.57-15.67-16.67-24.6l-.14,2.99c-.62,12.96,6.84,24.88,17.66,32.57,10.58,7.52,25.46,9.57,37.89,5.84l-1.42,2.28c-8.26,13.22-26.19,19.01-41.03,14.24-14.84-4.76-27.64-18.61-26.12-36.47-.93,10.87.57,24.31,7.55,35.09,8.65,13.36,24.83,19.72,39.7,14.06M337.63,177.63c-17.8-15.85-26.24-39.91-22.23-63.4-4.68,27.43-14.58,53.44-47.19,63.4,25.12,1.29,39.89-2.37,43.88-22.78-.29,14.62,8.83,24.31,25.54,22.78"/>
    </g>
    <g>
      <path class="cls-2" d="M9.2,203.22c0-3.99,2.21-6.26,5.18-6.26s5.18,2.26,5.18,6.26-2.19,6.26-5.18,6.26-5.18-2.26-5.18-6.26ZM16.75,203.22c0-2.75-.97-3.89-2.37-3.89s-2.35,1.14-2.35,3.89.97,3.89,2.35,3.89,2.37-1.14,2.37-3.89Z"/>
      <path class="cls-2" d="M20.93,203.22c0-3.99,2.21-6.26,5.18-6.26s5.18,2.26,5.18,6.26-2.19,6.26-5.18,6.26-5.18-2.26-5.18-6.26ZM28.48,203.22c0-2.75-.97-3.89-2.37-3.89s-2.35,1.14-2.35,3.89.97,3.89,2.35,3.89,2.37-1.14,2.37-3.89Z"/>
      <path class="cls-2" d="M45.59,209.27l-2.33-3.37h-2.58v3.37h-2.8v-12.1h5.24c3.23,0,5.25,1.68,5.25,4.39,0,1.81-.92,3.14-2.49,3.82l2.71,3.89h-3.01ZM42.96,199.45h-2.28v4.22h2.28c1.71,0,2.57-.79,2.57-2.11s-.86-2.11-2.57-2.11Z"/>
      <path class="cls-2" d="M59.95,207.02v2.25h-9.37v-12.1h9.14v2.25h-6.36v2.63h5.62v2.18h-5.62v2.8h6.58Z"/>
      <path class="cls-2" d="M70.32,203.03h2.56v4.91c-1.33,1-3.16,1.54-4.89,1.54-3.8,0-6.6-2.61-6.6-6.26s2.8-6.26,6.65-6.26c2.12,0,3.89.73,5.06,2.09l-1.8,1.66c-.88-.93-1.9-1.36-3.13-1.36-2.35,0-3.96,1.57-3.96,3.87s1.61,3.87,3.92,3.87c.76,0,1.47-.14,2.18-.52v-3.54Z"/>
      <path class="cls-2" d="M75.48,197.17h2.8v12.1h-2.8v-12.1Z"/>
      <path class="cls-2" d="M80.39,203.22c0-3.59,2.8-6.26,6.62-6.26s6.62,2.64,6.62,6.26-2.82,6.26-6.62,6.26-6.62-2.66-6.62-6.26ZM90.79,203.22c0-2.3-1.62-3.87-3.78-3.87s-3.78,1.57-3.78,3.87,1.62,3.87,3.78,3.87,3.78-1.57,3.78-3.87Z"/>
      <path class="cls-2" d="M106.83,197.17v12.1h-2.3l-6.03-7.34v7.34h-2.76v-12.1h2.32l6.01,7.34v-7.34h2.77Z"/>
      <path class="cls-2" d="M108.75,208.08l.95-2.11c1.02.74,2.54,1.26,3.99,1.26,1.66,0,2.33-.55,2.33-1.3,0-2.26-7.03-.71-7.03-5.2,0-2.06,1.66-3.77,5.1-3.77,1.52,0,3.08.36,4.2,1.07l-.86,2.13c-1.12-.64-2.28-.95-3.35-.95-1.66,0-2.3.62-2.3,1.38,0,2.23,7.03.69,7.03,5.13,0,2.02-1.68,3.75-5.13,3.75-1.92,0-3.85-.57-4.93-1.4Z"/>
      <path class="cls-3" d="M127.89,195.4h1.14v16.17h-1.14v-16.17Z"/>
      <path class="cls-3" d="M137.52,197.17h5.1c3.89,0,6.53,2.45,6.53,6.05s-2.64,6.05-6.53,6.05h-5.1v-12.1ZM142.51,207.77c2.99,0,4.91-1.83,4.91-4.55s-1.92-4.54-4.91-4.54h-3.27v9.09h3.27Z"/>
      <path class="cls-3" d="M160.59,207.77v1.5h-8.78v-12.1h8.54v1.5h-6.81v3.72h6.06v1.47h-6.06v3.91h7.05Z"/>
      <path class="cls-3" d="M162.38,203.22c0-3.58,2.73-6.19,6.41-6.19,1.87,0,3.49.64,4.6,1.88l-1.12,1.09c-.93-.99-2.07-1.43-3.4-1.43-2.73,0-4.75,1.97-4.75,4.65s2.02,4.65,4.75,4.65c1.33,0,2.47-.47,3.4-1.45l1.12,1.09c-1.11,1.24-2.73,1.9-4.61,1.9-3.66,0-6.39-2.61-6.39-6.19Z"/>
      <path class="cls-3" d="M184.65,207.77v1.5h-8.78v-12.1h8.54v1.5h-6.81v3.72h6.06v1.47h-6.06v3.91h7.05Z"/>
      <path class="cls-3" d="M198.69,209.27l-.02-8.81-4.37,7.34h-.79l-4.37-7.29v8.76h-1.66v-12.1h1.42l5.05,8.5,4.98-8.5h1.42l.02,12.1h-1.66Z"/>
      <path class="cls-3" d="M214.4,206c0,2.07-1.57,3.27-4.63,3.27h-5.77v-12.1h5.43c2.78,0,4.34,1.17,4.34,3.13,0,1.31-.67,2.23-1.62,2.7,1.36.38,2.26,1.4,2.26,3.01ZM205.73,198.57v3.87h3.54c1.76,0,2.77-.66,2.77-1.94s-1-1.93-2.77-1.93h-3.54ZM212.66,205.87c0-1.4-1.04-2.02-2.96-2.02h-3.97v4.03h3.97c1.92,0,2.96-.6,2.96-2Z"/>
      <path class="cls-3" d="M225.88,207.77v1.5h-8.78v-12.1h8.54v1.5h-6.81v3.72h6.06v1.47h-6.06v3.91h7.05Z"/>
      <path class="cls-3" d="M236.79,209.27l-2.61-3.71c-.24.02-.5.03-.76.03h-2.99v3.68h-1.73v-12.1h4.72c3.14,0,5.05,1.59,5.05,4.22,0,1.87-.97,3.21-2.66,3.82l2.87,4.06h-1.88ZM236.74,201.39c0-1.73-1.16-2.71-3.37-2.71h-2.94v5.44h2.94c2.21,0,3.37-1,3.37-2.73Z"/>
      <path class="cls-3" d="M253.47,207.77v1.5h-8.69v-1.18l4.93-4.75c1.28-1.25,1.52-2.01,1.52-2.77,0-1.24-.88-2-2.58-2-1.3,0-2.35.41-3.09,1.31l-1.18-1.02c.93-1.16,2.54-1.83,4.42-1.83,2.52,0,4.15,1.3,4.15,3.37,0,1.18-.35,2.23-1.99,3.8l-3.7,3.56h6.2Z"/>
      <path class="cls-3" d="M254.85,203.22c0-3.94,2.11-6.19,4.94-6.19s4.93,2.25,4.93,6.19-2.11,6.19-4.93,6.19-4.94-2.25-4.94-6.19ZM262.99,203.22c0-3.09-1.31-4.65-3.2-4.65s-3.21,1.56-3.21,4.65,1.31,4.65,3.21,4.65,3.2-1.56,3.2-4.65Z"/>
      <path class="cls-3" d="M274.85,207.77v1.5h-8.69v-1.18l4.93-4.75c1.28-1.25,1.52-2.01,1.52-2.77,0-1.24-.88-2-2.58-2-1.3,0-2.35.41-3.09,1.31l-1.18-1.02c.93-1.16,2.54-1.83,4.42-1.83,2.52,0,4.15,1.3,4.15,3.37,0,1.18-.35,2.23-1.99,3.8l-3.7,3.56h6.2Z"/>
      <path class="cls-3" d="M285.05,197.17v1.17l-4.89,10.92h-1.83l4.79-10.59h-5.53v2.16h-1.66v-3.66h9.12Z"/>
    </g>
  </g>
  <path class="cls-2" d="M7.64,197.17v12.1h-2.8v-9.85h-2.42v-2.25h5.22Z"/>
</svg>