<?xml version="1.0" encoding="UTF-8"?>
<svg id="Layer_2" data-name="Layer 2" xmlns="http://www.w3.org/2000/svg" viewBox="0 0 475.03 201.89">
  <defs>
    <style>
      .cls-1 {
        fill: #ec1d24;
      }

      .cls-2 {
        fill: #e1e2e3;
      }

      .cls-3 {
        fill: #75bf44;
      }
    </style>
  </defs>
  <g id="Angels_logo" data-name="Angels logo">
    <g>
      <path class="cls-3" d="m36.05,152.81c0,3.47-.98,6.23-2.94,8.27-1.96,2.03-4.79,3.05-8.49,3.05-.89,0-1.81-.09-2.77-.28-.96-.18-1.81-.5-2.55-.94-.74-.44-1.35-1.03-1.83-1.78-.48-.74-.72-1.62-.72-2.66,0-1.63.52-2.94,1.55-3.94,1.04-1,2.35-1.76,3.94-2.28,1.59-.52,3.4-.87,5.44-1.06,2.03-.18,4.05-.28,6.04-.28h2.33v1.88Zm-24.19-15.64c1.7-1.55,3.75-2.88,6.16-3.99,2.4-1.11,4.9-1.66,7.49-1.66,2.81,0,5.17.65,7.1,1.94,1.92,1.29,2.88,3.31,2.88,6.05v.89c-3.99,0-8.1.22-12.31.67-4.21.44-8.04,1.33-11.48,2.66-3.44,1.33-6.25,3.22-8.43,5.66-2.18,2.44-3.27,5.66-3.27,9.65,0,3.25.63,5.99,1.88,8.21,1.26,2.22,2.87,4,4.83,5.33,1.96,1.33,4.12,2.29,6.49,2.88,2.37.59,4.66.89,6.88.89,3.33,0,6.42-.63,9.26-1.88,2.85-1.26,4.97-3.03,6.38-5.33h.33v5.88h16.64v-27.84c0-5.03-.46-9.38-1.39-13.04-.93-3.66-2.38-6.69-4.38-9.1-2-2.4-4.6-4.18-7.82-5.32-3.22-1.15-7.16-1.72-11.82-1.72s-8.93.77-13.26,2.33c-4.33,1.55-8.12,3.88-11.37,6.99l9.21,9.87Zm104.51,37.83v-34.17c0-2.74-.35-5.47-1.05-8.21-.7-2.74-1.85-5.16-3.44-7.27-1.59-2.11-3.68-3.83-6.27-5.16-2.59-1.33-5.73-2-9.43-2-1.92,0-3.74.26-5.44.78-1.7.52-3.28,1.18-4.72,2-1.44.82-2.7,1.79-3.77,2.94-1.07,1.15-1.94,2.31-2.61,3.49h-.22v-7.65h-17.64v55.25h18.31v-29.95c0-1.55.2-3.05.61-4.49.41-1.44,1.02-2.72,1.83-3.83.81-1.11,1.83-1.98,3.05-2.61,1.22-.63,2.64-.94,4.27-.94s2.98.31,4.05.94c1.07.63,1.9,1.48,2.49,2.55.59,1.07,1.01,2.31,1.28,3.72.26,1.41.39,2.88.39,4.44v30.17h18.3Zm67.89-55.25h-17.19v7.1h-.22c-1.92-2.96-4.48-5.14-7.65-6.55-3.18-1.4-6.51-2.11-9.98-2.11-4.14,0-7.84.79-11.09,2.38-3.25,1.59-6.01,3.72-8.27,6.38-2.26,2.66-3.98,5.73-5.16,9.21-1.18,3.48-1.78,7.13-1.78,10.98s.59,7.49,1.78,10.93c1.18,3.44,2.9,6.45,5.16,9.04,2.25,2.59,5.01,4.64,8.27,6.16,3.25,1.51,6.99,2.27,11.2,2.27,3.7,0,6.99-.66,9.87-2,2.88-1.33,5.18-3.11,6.88-5.32h.33v3.33c0,4.66-1.28,8.39-3.83,11.2-2.55,2.81-6.49,4.21-11.82,4.21-3.1,0-6.27-.57-9.48-1.72-3.22-1.15-6.16-2.9-8.82-5.27l-9.1,12.98c3.77,2.81,8.23,4.95,13.37,6.44,5.14,1.48,10.15,2.22,15.03,2.22s9.34-.65,13.37-1.94c4.03-1.3,7.45-3.26,10.26-5.88,2.81-2.62,4.99-5.93,6.54-9.93,1.55-3.99,2.33-8.69,2.33-14.09v-50.03Zm-18.25,32.73c-.63,1.7-1.52,3.18-2.66,4.44-1.15,1.26-2.55,2.27-4.22,3.05-1.66.77-3.53,1.16-5.6,1.16s-3.9-.39-5.49-1.16c-1.59-.78-2.94-1.81-4.05-3.11-1.11-1.29-1.96-2.79-2.55-4.5-.59-1.7-.89-3.47-.89-5.33s.3-3.73.89-5.43c.59-1.7,1.44-3.18,2.55-4.44,1.11-1.26,2.46-2.25,4.05-2.99,1.59-.74,3.42-1.11,5.49-1.11s3.92.37,5.55,1.11c1.63.74,3.03,1.76,4.22,3.05,1.18,1.3,2.09,2.8,2.72,4.49.63,1.7.94,3.48.94,5.32s-.32,3.74-.94,5.44m42.88-11.43c.07-1.4.44-2.75,1.11-4.05.67-1.29,1.55-2.42,2.66-3.38,1.11-.96,2.4-1.72,3.88-2.27,1.48-.55,3.11-.83,4.88-.83,3.62,0,6.34,1.04,8.16,3.11,1.81,2.07,2.72,4.55,2.72,7.43h-23.41Zm38.11-5.66c-1.37-3.69-3.27-6.84-5.71-9.43-2.44-2.59-5.36-4.56-8.77-5.93-3.4-1.37-7.14-2.05-11.2-2.05s-8.14.7-11.76,2.11c-3.62,1.41-6.77,3.38-9.43,5.93-2.66,2.55-4.77,5.66-6.32,9.32-1.55,3.66-2.33,7.75-2.33,12.26s.79,8.8,2.38,12.42c1.59,3.62,3.77,6.68,6.55,9.15,2.77,2.48,6.01,4.36,9.7,5.66,3.7,1.29,7.62,1.94,11.76,1.94,5.62,0,10.56-1.02,14.81-3.05,4.25-2.03,7.67-4.93,10.26-8.71l-12.65-7.99c-1.26,1.7-2.88,3.09-4.88,4.16-2,1.07-4.44,1.61-7.32,1.61-1.63,0-3.2-.26-4.71-.77-1.52-.52-2.89-1.24-4.1-2.16-1.22-.92-2.22-2.02-3-3.28-.77-1.25-1.24-2.66-1.39-4.21h40.05c.07-.67.11-1.37.11-2.11v-2.22c0-4.73-.68-8.95-2.05-12.65m27.68-44.26h-18.53v83.87h18.53v-83.87Z"/>
      <path class="cls-1" d="m278.67,125.74c2.74-2.59,6.08-4.53,10.04-5.82,3.96-1.29,8.01-1.94,12.15-1.94,2.66,0,5.34.35,8.04,1.05,2.7.7,5.16,1.79,7.38,3.27,2.22,1.48,4.03,3.38,5.44,5.71,1.41,2.33,2.11,5.16,2.11,8.48,0,2.59-.48,4.81-1.44,6.66-.96,1.85-2.2,3.41-3.72,4.66-1.52,1.26-3.23,2.25-5.16,3-1.92.74-3.84,1.33-5.77,1.77-3.77.89-6.55,1.74-8.32,2.55-1.78.81-2.66,2.07-2.66,3.77s.72,3.01,2.16,3.72c1.44.7,2.9,1.05,4.38,1.05,2.66,0,5.18-.59,7.54-1.77,2.37-1.18,4.37-2.66,5.99-4.44l10.21,10.76c-2.88,2.81-6.49,4.94-10.82,6.38-4.33,1.44-8.74,2.17-13.26,2.17-2.81,0-5.62-.34-8.43-1-2.81-.66-5.34-1.74-7.6-3.22-2.26-1.48-4.09-3.42-5.49-5.82-1.4-2.4-2.11-5.34-2.11-8.82,0-2.66.52-4.95,1.55-6.88,1.03-1.92,2.4-3.55,4.1-4.88,1.7-1.33,3.6-2.4,5.71-3.22,2.11-.81,4.2-1.44,6.27-1.88,3.55-.81,6.12-1.55,7.71-2.22,1.59-.66,2.39-1.77,2.39-3.33s-.72-2.77-2.16-3.44c-1.44-.67-3.01-1-4.72-1-2.22,0-4.33.48-6.32,1.44-2,.96-3.74,2.15-5.22,3.55l-9.99-10.32Z"/>
      <path class="cls-2" d="m383.24,201.63c-20.21-17.99-29.79-45.3-25.24-71.97-5.31,31.14-16.55,60.66-53.56,71.97,28.52,1.46,45.28-2.69,49.81-25.87-.32,16.6,10.03,27.6,28.99,25.87m52.78-23.98c-3.02,10.72-11.49,19.13-22.23,22.07-10.74,2.95-22.31.05-30.38-7.63-8.83-8.39-15.06-19.2-17.9-31.05-4.65-19.42-3.9-39.82,2.16-58.86,7.81-24.54,27.52-43.68,52.28-50.77,23.19-6.64,39.72-27.34,41.07-51.42l4.85,7.76c8.61,13.77,8.15,31.46-1.15,44.77-9.31,13.31-25.76,19.81-41.65,16.46l.86.48c10.63,5.97,23.72,5.85,34.23-.32,7.39-4.34,12.96-11.29,15.58-19.46l.54,2.59c3.3,15.84-4.69,31.95-19.3,38.9-14.61,6.95-37.07,1.53-44.57-9.63,0,0,5.5,19.62,25.23,24.04,11.75,2.63,28.13-.97,34.44-12.29v3.72c-.48,15.36-8.39,27.92-18.76,32.17-10.36,4.27-25.73,2.38-35.09-3.77-11.97-7.87-17.68-17.79-18.92-27.92l-.16,3.39c-.7,14.71,7.76,28.24,20.05,36.97,12.01,8.53,28.9,10.86,43.01,6.63l-1.62,2.59c-9.38,15-29.73,21.58-46.57,16.17-16.84-5.41-31.37-21.13-29.64-41.4-1.05,12.33.64,27.6,8.57,39.83,9.81,15.16,28.18,22.38,45.06,15.95"/>
    </g>
  </g>
</svg>